<?xml version="1.0" encoding="UTF-8"?>
<svg height="16px" viewBox="0 0 16 16" width="16px" xmlns="http://www.w3.org/2000/svg">
    <path d="m 6.199219 3.777344 c -0.324219 -0.019532 -0.65625 0.035156 -0.976563 0.222656 c -0.648437 0.371094 -0.859375 1.03125 -0.96875 1.652344 c -0.105468 0.621094 -0.125 1.347656 -0.128906 2.273437 c 0 0.925781 0.015625 1.652344 0.117188 2.273438 c 0.105468 0.625 0.316406 1.285156 0.960937 1.65625 c 0.644531 0.375 1.324219 0.230469 1.917969 0.011719 c 0.589844 -0.21875 1.230468 -0.5625 2.03125 -1.023438 c 0.804687 -0.460938 1.421875 -0.835938 1.910156 -1.238281 c 0.488281 -0.402344 0.953125 -0.917969 0.953125 -1.664063 c 0.003906 -0.742187 -0.460937 -1.257812 -0.945313 -1.664062 c -0.484374 -0.402344 -1.105468 -0.78125 -1.90625 -1.246094 c -0.800781 -0.464844 -1.433593 -0.8125 -2.027343 -1.035156 c -0.296875 -0.109375 -0.613281 -0.203125 -0.9375 -0.21875 z m 0.019531 1.957031 c -0.15625 0.089844 -0.144531 0 0.21875 0.136719 c 0.367188 0.136718 0.953125 0.441406 1.722656 0.886718 c 0.769532 0.449219 1.328125 0.808594 1.628906 1.058594 c 0.300782 0.25 0.226563 0.300782 0.226563 0.121094 c 0.003906 -0.175781 0.074219 -0.125 -0.226563 0.125 c -0.300781 0.246094 -0.859374 0.605469 -1.632812 1.046875 c -0.769531 0.445313 -1.363281 0.746094 -1.726562 0.882813 c -0.367188 0.132812 -0.375 0.042968 -0.222657 0.132812 c 0.15625 0.089844 0.074219 0.128906 0.011719 -0.257812 c -0.066406 -0.382813 -0.09375 -1.046876 -0.09375 -1.9375 c 0.003906 -0.890626 0.035156 -1.550782 0.101562 -1.9375 c 0.066407 -0.382813 0.148438 -0.347657 -0.007812 -0.257813 z m 0 0"/>
    <path d="m 3.140625 0.0195312 c -1.6875 0 -3.0742188 1.3906248 -3.0742188 3.0742188 v 9.804688 c 0 1.6875 1.3867188 3.074218 3.0742188 3.074218 h 9.71875 c 1.683594 0 3.074219 -1.386718 3.074219 -3.074218 v -9.804688 c 0 -1.683594 -1.390625 -3.0742188 -3.074219 -3.0742188 z m 0 1.9999998 h 9.71875 c 0.613281 0 1.074219 0.460938 1.074219 1.074219 v 9.804688 c 0 0.613281 -0.460938 1.074218 -1.074219 1.074218 h -9.71875 c -0.613281 0 -1.074219 -0.460937 -1.074219 -1.074218 v -9.804688 c 0 -0.613281 0.460938 -1.074219 1.074219 -1.074219 z m 0 0"/>
</svg>
