<?xml version="1.0" encoding="UTF-8"?>
<svg height="128px" viewBox="0 0 128 128" width="128px" xmlns="http://www.w3.org/2000/svg" xmlns:xlink="http://www.w3.org/1999/xlink">
    <linearGradient id="a" gradientTransform="matrix(0.232143 0 0 0.328947 -8.763367 264.742615)" gradientUnits="userSpaceOnUse" x1="88.595886" x2="536.595886" y1="-449.394012" y2="-449.394012">
        <stop offset="0" stop-color="#bbbbbb"/>
        <stop offset="0.0384615" stop-color="#dddddd"/>
        <stop offset="0.0768555" stop-color="#bbbbbb"/>
        <stop offset="0.923077" stop-color="#bbbbbb"/>
        <stop offset="0.961538" stop-color="#dddddd"/>
        <stop offset="1" stop-color="#bbbbbb"/>
    </linearGradient>
    <path d="m 19.804688 16.914062 h 88 c 4.417968 0 8 3.582032 8 8 v 84 c 0 4.417969 -3.582032 8 -8 8 h -88 c -4.417969 0 -8 -3.582031 -8 -8 v -84 c 0 -4.417968 3.582031 -8 8 -8 z m 0 0" fill="url(#a)"/>
    <path d="m 20.257812 17.101562 h 88.675782 c 4.320312 0 7.824218 3.503907 7.824218 7.824219 v 76.875 c 0 4.320313 -3.503906 7.824219 -7.824218 7.824219 h -88.675782 c -4.320312 0 -7.824218 -3.503906 -7.824218 -7.824219 v -76.875 c 0 -4.320312 3.503906 -7.824219 7.824218 -7.824219 z m 0 0" fill="#eeeeee"/>
    <path d="m 20.59375 18.753906 h 88.007812 c 3.351563 0 6.066407 2.707032 6.066407 6.046875 v 76.234375 c 0 3.335938 -2.714844 6.042969 -6.066407 6.042969 h -88.007812 c -3.351562 0 -6.070312 -2.707031 -6.070312 -6.042969 v -76.234375 c 0 -3.339843 2.71875 -6.046875 6.070312 -6.046875 z m 0 0" fill="#3584e4"/>
    <path d="m 40.523438 63.34375 c -0.179688 -35.210938 0.0625 -35.367188 28.441406 -17.929688 s 28.382812 17.742188 0.183594 35.515626 c -28.203126 17.773437 -28.449219 17.625 -28.625 -17.585938 z m 0 0" fill="#b4b4b4"/>
    <path d="m 40.308594 61.238281 c -0.21875 -32.726562 0.027344 -32.867187 28.476562 -16.695312 c 28.449219 16.175781 28.453125 16.460937 0.21875 33.011719 c -28.230468 16.550781 -28.480468 16.410156 -28.695312 -16.316407 z m 0 0" fill="#f5f5f5"/>
</svg>
