<?xml version="1.0" encoding="UTF-8" standalone="no"?>
<svg
   height="128px"
   viewBox="0 0 128 128"
   width="128px"
   version="1.1"
   id="svg89"
   xmlns="http://www.w3.org/2000/svg"
   xmlns:svg="http://www.w3.org/2000/svg">
  <defs
     id="defs93" />
  <filter
     id="a"
     height="1"
     width="1"
     x="0"
     y="0">
    <feColorMatrix
       color-interpolation-filters="sRGB"
       values="0 0 0 0 1 0 0 0 0 1 0 0 0 0 1 0 0 0 1 0"
       id="feColorMatrix2" />
  </filter>
  <linearGradient
     id="b"
     gradientTransform="matrix(0.232143 0 0 0.328947 -8.763367 264.742615)"
     gradientUnits="userSpaceOnUse"
     x1="88.595886"
     x2="536.595886"
     y1="-449.394012"
     y2="-449.394012">
    <stop
       offset="0"
       stop-color="#c0bfbc"
       id="stop5" />
    <stop
       offset="0.0384615"
       stop-color="#ffffff"
       id="stop7" />
    <stop
       offset="0.0768555"
       stop-color="#c0bfbc"
       id="stop9" />
    <stop
       offset="0.923077"
       stop-color="#c0bfbc"
       id="stop11" />
    <stop
       offset="0.961538"
       stop-color="#ffffff"
       id="stop13" />
    <stop
       offset="1"
       stop-color="#c0bfbc"
       id="stop15" />
  </linearGradient>
  <linearGradient
     id="c"
     gradientUnits="userSpaceOnUse"
     x1="17.74270846086"
     x2="111.24672381428"
     y1="19.24435887427"
     y2="106.16460332721">
    <stop
       offset="0"
       stop-color="#3584e4"
       id="stop18" />
    <stop
       offset="1"
       stop-color="#2ec27e"
       id="stop20" />
  </linearGradient>
  <radialGradient
     id="d"
     cx="53.503277"
     cy="59.222797"
     gradientTransform="matrix(0.964329 0 0 0.849301 9.083662 11.723546)"
     gradientUnits="userSpaceOnUse"
     r="31.144438">
    <stop
       offset="0.2"
       stop-color="#deddda"
       id="stop23" />
    <stop
       offset="1"
       stop-color="#c0bfbc"
       id="stop25" />
  </radialGradient>
  <clipPath
     id="e">
    <rect
       height="128"
       width="128"
       id="rect28" />
  </clipPath>
  <clipPath
     id="f">
    <rect
       height="128"
       width="128"
       id="rect31" />
  </clipPath>
  <mask
     id="g">
    <g
       filter="url(#a)"
       id="g48">
      <g
         clip-path="url(#f)"
         filter="url(#a)"
         id="g46">
        <g
           clip-path="url(#e)"
           id="g44">
          <path
             d="m 19.804688 16.914062 h 88 c 4.417968 0 8 3.582032 8 8 v 84 c 0 4.417969 -3.582032 8 -8 8 h -88 c -4.417969 0 -8 -3.582031 -8 -8 v -84 c 0 -4.417968 3.582031 -8 8 -8 z m 0 0"
             fill="url(#b)"
             id="path34" />
          <path
             d="m 20.257812 17.101562 h 88.675782 c 4.320312 0 7.824218 3.503907 7.824218 7.824219 v 76.875 c 0 4.320313 -3.503906 7.824219 -7.824218 7.824219 h -88.675782 c -4.320312 0 -7.824218 -3.503906 -7.824218 -7.824219 v -76.875 c 0 -4.320312 3.503906 -7.824219 7.824218 -7.824219 z m 0 0"
             fill="#9a9996"
             id="path36" />
          <path
             d="m 20.59375 18.753906 h 88.007812 c 3.351563 0 6.066407 2.71875 6.066407 6.070313 v 76.535156 c 0 3.351563 -2.714844 6.070313 -6.066407 6.070313 h -88.007812 c -3.351562 0 -6.070312 -2.71875 -6.070312 -6.070313 v -76.535156 c 0 -3.351563 2.71875 -6.070313 6.070312 -6.070313 z m 0 0"
             fill="url(#c)"
             id="path38" />
          <path
             d="m 40.984375 63.667969 c -0.1875 -33.640625 0.066406 -33.785157 29.289063 -17.125 c 29.226562 16.660156 29.230468 16.949219 0.1875 33.929687 c -29.039063 16.980469 -29.292969 16.835938 -29.476563 -16.804687 z m 0 0"
             fill="#5e5c64"
             id="path40" />
          <path
             d="m 41.308594 62.941406 c -0.21875 -32.726562 0.027344 -32.871094 28.476562 -16.695312 c 28.449219 16.171875 28.453125 16.457031 0.21875 33.007812 c -28.230468 16.550782 -28.476562 16.410156 -28.695312 -16.3125 z m 0 0"
             fill="url(#d)"
             id="path42" />
        </g>
      </g>
    </g>
  </mask>
  <mask
     id="h">
    <g
       filter="url(#a)"
       id="g53">
      <rect
         fill-opacity="0.8"
         height="184.32"
         width="184.32"
         x="-28.16"
         y="-28.16"
         id="rect51" />
    </g>
  </mask>
  <linearGradient
     id="i"
     gradientTransform="matrix(0 0.37 -0.98462 0 295.38501 -30.360001)"
     gradientUnits="userSpaceOnUse"
     x1="300"
     x2="428"
     y1="235"
     y2="235">
    <stop
       offset="0"
       stop-color="#f9f06b"
       id="stop56" />
    <stop
       offset="1"
       stop-color="#f5c211"
       id="stop58" />
  </linearGradient>
  <clipPath
     id="j">
    <rect
       height="128"
       width="128"
       id="rect61" />
  </clipPath>
  <clipPath
     id="k">
    <rect
       height="128"
       width="128"
       id="rect64" />
  </clipPath>
  <path
     d="m 19.804688 16.914062 h 88 c 4.417968 0 8 3.582032 8 8 v 84 c 0 4.417969 -3.582032 8 -8 8 h -88 c -4.417969 0 -8 -3.582031 -8 -8 v -84 c 0 -4.417968 3.582031 -8 8 -8 z m 0 0"
     fill="url(#b)"
     id="path67" />
  <path
     d="m 20.257812 17.101562 h 88.675782 c 4.320312 0 7.824218 3.503907 7.824218 7.824219 v 76.875 c 0 4.320313 -3.503906 7.824219 -7.824218 7.824219 h -88.675782 c -4.320312 0 -7.824218 -3.503906 -7.824218 -7.824219 v -76.875 c 0 -4.320312 3.503906 -7.824219 7.824218 -7.824219 z m 0 0"
     fill="#9a9996"
     id="path69" />
  <path
     d="m 20.59375 18.753906 h 88.007812 c 3.351563 0 6.066407 2.71875 6.066407 6.070313 v 76.535156 c 0 3.351563 -2.714844 6.070313 -6.066407 6.070313 h -88.007812 c -3.351562 0 -6.070312 -2.71875 -6.070312 -6.070313 v -76.535156 c 0 -3.351563 2.71875 -6.070313 6.070312 -6.070313 z m 0 0"
     fill="url(#c)"
     id="path71" />
  <path
     d="m 40.984375 63.667969 c -0.1875 -33.640625 0.066406 -33.785157 29.289063 -17.125 c 29.226562 16.660156 29.230468 16.949219 0.1875 33.929687 c -29.039063 16.980469 -29.292969 16.835938 -29.476563 -16.804687 z m 0 0"
     fill="#5e5c64"
     id="path73" />
  <path
     d="m 41.308594 62.941406 c -0.21875 -32.726562 0.027344 -32.871094 28.476562 -16.695312 c 28.449219 16.171875 28.453125 16.457031 0.21875 33.007812 c -28.230468 16.550782 -28.476562 16.410156 -28.695312 -16.3125 z m 0 0"
     fill="url(#d)"
     id="path75" />
  <g
     mask="url(#g)"
     id="g87">
    <g
       clip-path="url(#k)"
       id="g85">
      <g
         mask="url(#h)"
         id="g83">
        <g
           clip-path="url(#j)"
           id="g81">
          <path
             d="m 128 80.640625 v 47.359375 h -128 v -47.359375 z m 0 0"
             fill="url(#i)"
             id="path77" />
          <path
             d="m 13.308594 80.640625 l 47.355468 47.359375 h 21.214844 l -47.359375 -47.359375 z m 42.421875 0 l 47.363281 47.359375 h 21.214844 l -47.363282 -47.359375 z m 42.429687 0 l 29.839844 29.839844 v -21.210938 l -8.628906 -8.628906 z m -98.160156 7.90625 v 21.214844 l 18.238281 18.238281 h 21.214844 z m 0 0"
             id="path79"
             style="fill:#6400dc;fill-opacity:1" />
        </g>
      </g>
    </g>
  </g>
</svg>
