<?xml version="1.0" encoding="UTF-8"?>
<svg height="128px" viewBox="0 0 128 128" width="128px" xmlns="http://www.w3.org/2000/svg" xmlns:xlink="http://www.w3.org/1999/xlink">
    <linearGradient id="a" gradientTransform="matrix(0.232143 0 0 0.328947 -8.763367 264.742615)" gradientUnits="userSpaceOnUse" x1="88.595886" x2="536.595886" y1="-449.394012" y2="-449.394012">
        <stop offset="0" stop-color="#c0bfbc"/>
        <stop offset="0.0384615" stop-color="#ffffff"/>
        <stop offset="0.0768555" stop-color="#c0bfbc"/>
        <stop offset="0.923077" stop-color="#c0bfbc"/>
        <stop offset="0.961538" stop-color="#ffffff"/>
        <stop offset="1" stop-color="#c0bfbc"/>
    </linearGradient>
    <linearGradient id="b" gradientUnits="userSpaceOnUse" x1="17.74270846086" x2="111.24672381428" y1="19.24435887427" y2="106.16460332721">
        <stop offset="0" stop-color="#3584e4"/>
        <stop offset="1" stop-color="#2ec27e"/>
    </linearGradient>
    <radialGradient id="c" cx="53.503277" cy="59.222797" gradientTransform="matrix(0.964329 0 0 0.849301 9.083662 11.723546)" gradientUnits="userSpaceOnUse" r="31.144438">
        <stop offset="0.2" stop-color="#deddda"/>
        <stop offset="1" stop-color="#c0bfbc"/>
    </radialGradient>
    <path d="m 19.804688 16.914062 h 88 c 4.417968 0 8 3.582032 8 8 v 84 c 0 4.417969 -3.582032 8 -8 8 h -88 c -4.417969 0 -8 -3.582031 -8 -8 v -84 c 0 -4.417968 3.582031 -8 8 -8 z m 0 0" fill="url(#a)"/>
    <path d="m 20.257812 17.101562 h 88.675782 c 4.320312 0 7.824218 3.503907 7.824218 7.824219 v 76.875 c 0 4.320313 -3.503906 7.824219 -7.824218 7.824219 h -88.675782 c -4.320312 0 -7.824218 -3.503906 -7.824218 -7.824219 v -76.875 c 0 -4.320312 3.503906 -7.824219 7.824218 -7.824219 z m 0 0" fill="#9a9996"/>
    <path d="m 20.59375 18.753906 h 88.007812 c 3.351563 0 6.066407 2.71875 6.066407 6.070313 v 76.535156 c 0 3.351563 -2.714844 6.070313 -6.066407 6.070313 h -88.007812 c -3.351562 0 -6.070312 -2.71875 -6.070312 -6.070313 v -76.535156 c 0 -3.351563 2.71875 -6.070313 6.070312 -6.070313 z m 0 0" fill="url(#b)"/>
    <path d="m 40.984375 63.667969 c -0.1875 -33.640625 0.066406 -33.785157 29.289063 -17.125 c 29.226562 16.660156 29.230468 16.949219 0.1875 33.929687 c -29.039063 16.980469 -29.292969 16.835938 -29.476563 -16.804687 z m 0 0" fill="#5e5c64"/>
    <path d="m 41.308594 62.941406 c -0.21875 -32.726562 0.027344 -32.871094 28.476562 -16.695312 c 28.449219 16.171875 28.453125 16.457031 0.21875 33.007812 c -28.230468 16.550782 -28.476562 16.410156 -28.695312 -16.3125 z m 0 0" fill="url(#c)"/>
</svg>
